HIERARCHY
ROOT Hips
{
	OFFSET 0.000000 0.000000 0.000000
	CHANNELS 6 Xposition Yposition Zposition Zrotation Yrotation Xrotation 
	JOINT LHipJoint
	{
		OFFSET 0.000000 0.000000 0.000000
		CHANNELS 3 Zrotation Yrotation Xrotation
		JOINT LeftUpLeg
		{
			OFFSET 1.363060 -1.794630 0.839290
			CHANNELS 3 Zrotation Yrotation Xrotation
			JOINT LeftLeg
			{
				OFFSET 2.448110 -6.726130 0.000000
				CHANNELS 3 Zrotation Yrotation Xrotation
				JOINT LeftFoot
				{
					OFFSET 2.562200 -7.039590 0.000000
					CHANNELS 3 Zrotation Yrotation Xrotation
					JOINT LeftToeBase
					{
						OFFSET 0.157640 -0.433110 2.322550
						CHANNELS 3 Zrotation Yrotation Xrotation
						End Site
						{
							OFFSET 0.000000 0.000000 0.000000
						}
					}
				}
			}
		}
	}
	JOINT RHipJoint
	{
		OFFSET 0.000000 0.000000 0.000000
		CHANNELS 3 Zrotation Yrotation Xrotation
		JOINT RightUpLeg
		{
			OFFSET -1.305520 -1.794630 0.839290
			CHANNELS 3 Zrotation Yrotation Xrotation
			JOINT RightLeg
			{
				OFFSET -2.542530 -6.985550 0.000000
				CHANNELS 3 Zrotation Yrotation Xrotation
				JOINT RightFoot
				{
					OFFSET -2.568260 -7.056230 0.000000
					CHANNELS 3 Zrotation Yrotation Xrotation
					JOINT RightToeBase
					{
						OFFSET -0.164730 -0.452590 2.363150
						CHANNELS 3 Zrotation Yrotation Xrotation
						End Site
						{
							OFFSET 0.000000 0.000000 0.000000
						}
					}
				}
			}
		}
	}
	JOINT LowerBack
	{
		OFFSET 0.000000 0.000000 0.000000
		CHANNELS 3 Zrotation Yrotation Xrotation
		JOINT Spine
		{
			OFFSET 0.028270 2.035590 -0.193380
			CHANNELS 3 Zrotation Yrotation Xrotation
			JOINT Spine1
			{
				OFFSET 0.056720 2.048850 -0.042750
				CHANNELS 3 Zrotation Yrotation Xrotation
				JOINT Neck
				{
					OFFSET 0.000000 0.000000 0.000000
					CHANNELS 3 Zrotation Yrotation Xrotation
					JOINT Neck1
					{
						OFFSET -0.054170 1.746240 0.172020
						CHANNELS 3 Zrotation Yrotation Xrotation
						JOINT Head
						{
							OFFSET 0.104070 1.761360 -0.123970
							CHANNELS 3 Zrotation Yrotation Xrotation
							End Site
							{
								OFFSET 0.000000 0.000000 0.000000
							}
						}
					}
				}
				JOINT LeftShoulder
				{
					OFFSET 0.000000 0.000000 0.000000
					CHANNELS 3 Zrotation Yrotation Xrotation
					JOINT LeftArm
					{
						OFFSET 3.362410 1.200890 -0.311210
						CHANNELS 3 Zrotation Yrotation Xrotation
						JOINT LeftForeArm
						{
							OFFSET 4.983000 -0.000000 -0.000000
							CHANNELS 3 Zrotation Yrotation Xrotation
							JOINT LeftHand
							{
								OFFSET 3.483560 -0.000000 -0.000000
								CHANNELS 3 Zrotation Yrotation Xrotation
								JOINT LeftFingerBase
								{
									OFFSET 0.000000 0.000000 0.000000
									CHANNELS 3 Zrotation Yrotation Xrotation
									JOINT LeftHandIndex1
									{
										OFFSET 0.715260 -0.000000 -0.000000
										CHANNELS 3 Zrotation Yrotation Xrotation
										End Site
										{
											OFFSET 0.000000 0.000000 0.000000
										}
									}
								}
								JOINT LThumb
								{
									OFFSET 0.000000 0.000000 0.000000
									CHANNELS 3 Zrotation Yrotation Xrotation
									End Site
									{
										OFFSET 0.000000 0.000000 0.000000
									}
								}
							}
						}
					}
				}
				JOINT RightShoulder
				{
					OFFSET 0.000000 0.000000 0.000000
					CHANNELS 3 Zrotation Yrotation Xrotation
					JOINT RightArm
					{
						OFFSET -3.136600 1.374050 -0.404650
						CHANNELS 3 Zrotation Yrotation Xrotation
						JOINT RightForeArm
						{
							OFFSET -5.241900 -0.000000 -0.000000
							CHANNELS 3 Zrotation Yrotation Xrotation
							JOINT RightHand
							{
								OFFSET -3.444170 -0.000000 -0.000000
								CHANNELS 3 Zrotation Yrotation Xrotation
								JOINT RightFingerBase
								{
									OFFSET 0.000000 0.000000 0.000000
									CHANNELS 3 Zrotation Yrotation Xrotation
									JOINT RightHandIndex1
									{
										OFFSET -0.622530 -0.000000 -0.000000
										CHANNELS 3 Zrotation Yrotation Xrotation
										End Site
										{
											OFFSET 0.000000 0.000000 0.000000
										}
									}
								}
								JOINT RThumb
								{
									OFFSET 0.000000 0.000000 0.000000
									CHANNELS 3 Zrotation Yrotation Xrotation
									End Site
									{
										OFFSET 0.000000 0.000000 0.000000
									}
								}
							}
						}
					}
				}
			}
		}
	}
}
MOTION
Frames: 12
Frame Time: 0.008333
4.785180 17.321345 1.044261 -10.156385 -83.663719 20.827468 -11.398345 3.121148 3.826985 -5.544911 10.561855 -15.050570 -2.472772 -1.392530 -1.294518 0.266975 1.786497 -0.207462 0.405700 -0.000000 -30.106900 8.763159 -2.541249 3.762800 7.936894 -4.384294 -7.856938 2.342845 2.493647 -4.999980 -2.135470 -12.345912 -1.879931 -2.285000 0.000000 -26.903300 -2.530824 -4.551007 -9.244845 -0.499208 -4.603784 -4.664622 -3.862763 -4.645925 -1.600444 5.227551 -5.669410 3.478514 -1.913846 -0.295641 3.098915 0.000000 0.000000 0.000000 13.267359 9.625815 -6.553238 -62.475347 -60.007853 -8.651955 175.487467 -54.433452 179.596732 22.451495 -13.653590 -3.031525 -0.323066 1.302111 -0.000000 0.000000 0.000000 0.000000 0.000000 0.000000 0.000000 -3.425412 -12.080502 -7.168933 23.302331 51.690638 -57.809415 -175.725328 54.234548 179.696667 -24.867469 17.489218 -4.195210 0.401906 -1.071254 -0.000000 0.000000 0.000000 0.000000 0.000000 0.000000 0.000000 
4.775123 17.321884 1.041768 -8.677061 -82.651428 19.514178 -11.304628 3.148548 4.014764 -5.477257 9.622976 -15.255598 -2.451162 -1.385750 -1.269189 0.254616 1.685603 -0.099873 0.403600 -0.000000 -30.213400 8.829678 -2.505681 3.699996 8.034901 -4.701060 -7.826276 2.293341 2.530872 -5.127954 -2.274018 -13.048966 -1.995800 -2.376399 0.000000 -26.507700 -2.592503 -4.517089 -9.314246 -0.505575 -4.573014 -4.722845 -3.806014 -4.619045 -1.800081 5.101607 -5.569558 3.565315 -1.845431 -0.293524 3.125699 0.000000 0.000000 0.000000 13.132961 9.465014 -6.542530 -62.243856 -60.586796 -8.780477 175.370693 -54.596410 179.593062 22.582964 -13.729951 -3.064301 -0.315680 1.300776 -0.000000 0.000000 0.000000 0.000000 0.000000 0.000000 0.000000 -3.672166 -11.901161 -7.251839 22.284777 52.018632 -59.310892 -175.724329 54.887058 179.695688 -24.995141 17.470110 -4.210609 0.398030 -1.065188 -0.000000 0.000000 0.000000 0.000000 0.000000 0.000000 0.000000 
4.766307 17.322384 1.039008 -7.477933 -81.603796 18.486436 -11.209500 3.165065 4.196330 -5.405194 8.668233 -15.459441 -2.429623 -1.382145 -1.250354 0.241484 1.590338 0.020488 0.402700 -0.000000 -30.314600 8.898246 -2.474986 3.631771 8.133735 -5.033990 -7.803201 2.243242 2.564188 -5.265753 -2.413382 -13.747950 -2.106533 -2.466800 0.000000 -26.115100 -2.660369 -4.476276 -9.370976 -0.513030 -4.532625 -4.782986 -3.747730 -4.581953 -2.017130 4.982057 -5.440490 3.660887 -1.776002 -0.291530 3.155039 0.000000 0.000000 0.000000 12.972918 9.253956 -6.524667 -62.012201 -61.218461 -8.914914 175.259595 -54.782889 179.589948 22.692338 -13.740105 -3.079876 -0.307833 1.297499 -0.000000 0.000000 0.000000 0.000000 0.000000 0.000000 0.000000 -3.906107 -11.658624 -7.324340 21.115236 52.314682 -60.820378 -175.753535 55.663973 179.696480 -24.876087 17.386656 -4.167934 0.387936 -1.058337 -0.000000 0.000000 0.000000 0.000000 0.000000 0.000000 0.000000 
4.758721 17.322792 1.035972 -6.481784 -80.535806 17.668008 -11.114267 3.171925 4.369829 -5.330568 7.709542 -15.660303 -2.408929 -1.381214 -1.240628 0.227539 1.499278 0.153519 0.402799 -0.000000 -30.411400 8.968110 -2.447991 3.557425 8.231024 -5.382036 -7.787088 2.193415 2.593921 -5.412174 -2.551182 -14.432627 -2.211016 -2.555100 0.000001 -25.729400 -2.733139 -4.424617 -9.413108 -0.521032 -4.478434 -4.845158 -3.684645 -4.530613 -2.252020 4.862329 -5.273992 3.764955 -1.703638 -0.289558 3.186878 0.000000 0.000000 0.000000 12.784578 8.991274 -6.497991 -61.775478 -61.897607 -9.060917 175.154946 -54.990808 179.587407 22.782156 -13.684925 -3.078846 -0.299684 1.292327 -0.000000 0.000000 0.000000 0.000000 0.000000 0.000000 0.000000 -4.142400 -11.342723 -7.382145 19.800017 52.555045 -62.317583 -175.811075 56.529619 179.698603 -24.575893 17.305395 -4.094977 0.373734 -1.052278 0.000000 0.000000 0.000000 0.000000 0.000000 0.000000 0.000000 
4.752572 17.323094 1.032642 -5.641242 -79.460468 17.010621 -11.020143 3.169592 4.532848 -5.256118 6.763036 -15.861887 -2.390284 -1.382419 -1.237425 0.212160 1.406059 0.297975 0.402999 0.000000 -30.505000 9.038295 -2.423974 3.477815 8.325895 -5.740525 -7.779853 2.144673 2.620467 -5.566872 -2.685719 -15.095940 -2.308166 -2.640600 0.000000 -25.354000 -2.807376 -4.358806 -9.440152 -0.528166 -4.407205 -4.909646 -3.612367 -4.461931 -2.504855 4.731052 -5.064998 3.876384 -1.625344 -0.287439 3.220934 0.000000 0.000000 0.000000 12.562569 8.679315 -6.461646 -61.532871 -62.618353 -9.220658 175.055900 -55.214109 179.585339 22.860537 -13.573707 -3.064014 -0.291470 1.285500 -0.000000 0.000000 0.000000 0.000000 0.000000 0.000000 0.000000 -4.405652 -10.948196 -7.422623 18.368604 52.721375 -63.785002 -175.891315 57.445048 179.701384 -24.188623 17.295107 -4.024030 0.358022 -1.048401 -0.000000 0.000000 0.000000 0.000000 0.000000 0.000000 0.000000 
4.748045 17.323385 1.028970 -4.913419 -78.391576 16.469038 -10.927929 3.158421 4.682384 -5.185107 5.839808 -16.057833 -2.374118 -1.385533 -1.246735 0.195511 1.312402 0.457018 0.403300 -0.000000 -30.595700 9.108775 -2.402007 3.391743 8.413988 -6.107468 -7.778837 2.097433 2.643481 -5.729340 -2.814583 -15.728087 -2.395008 -2.722700 0.000000 -24.994800 -2.881538 -4.275886 -9.447988 -0.533220 -4.315760 -4.975953 -3.526012 -4.372921 -2.776052 4.574411 -4.813588 3.993173 -1.537270 -0.284954 3.256659 0.000000 0.000000 0.000000 12.300819 8.323325 -6.415857 -61.288529 -63.375584 -9.394053 174.960511 -55.451568 179.583559 22.937786 -13.424982 -3.040877 -0.283280 1.277434 -0.000000 0.000000 0.000000 0.000000 0.000000 0.000000 0.000000 -4.726183 -10.475743 -7.444874 16.873665 52.806321 -65.208391 -175.986023 58.372633 179.703983 -23.822242 17.418224 -3.987083 0.343493 -1.047795 -0.000000 0.000000 0.000000 0.000000 0.000000 0.000000 0.000000 
4.745102 17.323703 1.024924 -4.274191 -77.338077 16.020867 -10.838254 3.138755 4.817513 -5.121338 4.957268 -16.256803 -2.362069 -1.390576 -1.261671 0.176487 1.208847 0.629207 0.402500 0.000000 -30.683600 9.177353 -2.380169 3.297267 8.499265 -6.469811 -7.871720 2.049181 2.647248 -5.714161 -2.913498 -16.322185 -2.576403 -2.802000 0.000000 -24.650900 -2.951171 -4.173886 -9.436377 -0.534248 -4.202447 -5.043913 -3.420964 -4.261962 -3.064861 4.376856 -4.524212 4.112151 -1.435596 -0.281874 3.293214 0.000000 0.000000 0.000000 11.991000 7.932017 -6.361501 -61.053961 -64.166050 -9.573789 174.866036 -55.698217 179.581842 23.026350 -13.258161 -3.015045 -0.275262 1.268563 -0.000000 0.000000 0.000000 0.000000 0.000000 0.000000 0.000000 -5.136147 -9.931827 -7.450906 15.381187 52.814973 -66.578653 -176.086204 59.287785 179.705518 -23.581355 17.731948 -4.013734 0.332412 -1.051298 -0.000000 0.000000 0.000000 0.000000 0.000000 0.000000 0.000000 
4.744105 17.324250 1.020316 -3.691343 -76.313356 15.627180 -10.751801 3.110303 4.932751 -5.070047 4.125279 -16.442187 -2.354159 -1.397141 -1.292749 0.155531 1.100258 0.821040 0.401200 0.000000 -30.766600 9.245161 -2.357973 3.192637 8.572495 -6.830451 -8.014093 2.001190 2.637316 -5.599213 -2.987811 -16.869454 -2.804476 -2.877700 0.000001 -24.328400 -3.018861 -4.050099 -9.396074 -0.531345 -4.063919 -5.111634 -3.294284 -4.125777 -3.371633 4.127565 -4.205408 4.230040 -1.317730 -0.278024 3.329624 0.000000 0.000000 0.000000 11.628136 7.513989 -6.300930 -60.848874 -64.990134 -9.745838 174.769057 -55.951915 179.579981 23.135367 -13.092680 -2.991818 -0.267370 1.259280 -0.000000 0.000000 0.000000 0.000000 0.000000 0.000000 0.000000 -5.656105 -9.325780 -7.444510 13.953974 52.765314 -67.899740 -176.184616 60.187899 179.705246 -23.554576 18.277923 -4.128783 0.326298 -1.059219 -0.000000 0.000000 0.000000 0.000000 0.000000 0.000000 0.000000 
4.744971 17.325160 1.015172 -3.156265 -75.321386 15.290328 -10.669736 3.072751 5.028388 -5.033885 3.351406 -16.634411 -2.351221 -1.404971 -1.328615 0.132343 0.982428 1.030156 0.398700 -0.000001 -30.844901 9.311114 -2.336960 3.085999 8.634793 -7.177140 -8.176336 1.955230 2.623068 -5.479440 -3.050524 -17.380194 -3.023681 -2.952600 -0.000000 -24.022401 -3.077945 -3.902897 -9.336197 -0.522520 -3.899617 -5.180052 -3.144319 -3.963597 -3.693875 3.812811 -3.868725 4.341897 -1.181221 -0.273230 3.364580 0.000000 0.000000 0.000000 11.201708 7.080275 -6.235514 -60.691181 -65.849231 -9.895363 174.668091 -56.211229 179.577765 23.270687 -12.956776 -2.978104 -0.259506 1.250283 -0.000000 0.000000 0.000000 0.000000 0.000000 0.000000 0.000000 -6.311334 -8.670394 -7.432689 12.669622 52.685918 -69.171419 -176.274650 61.099101 179.702575 -23.808991 19.072711 -4.352033 0.325652 -1.071290 -0.000000 0.000000 0.000000 0.000000 0.000000 0.000000 0.000000 
4.747887 17.326617 1.009331 -2.649424 -74.370041 14.987989 -10.592570 3.025645 5.101046 -5.016649 2.641850 -16.825045 -2.353197 -1.413767 -1.372873 0.107345 0.859437 1.260315 0.395301 -0.000000 -30.915300 9.375402 -2.316510 2.975600 8.682046 -7.507982 -8.351803 1.910951 2.603846 -5.356604 -3.101515 -17.851349 -3.229408 -3.027200 0.000000 -23.732800 -3.130158 -3.730227 -9.250294 -0.508578 -3.707116 -5.247042 -2.972215 -3.772741 -4.030178 3.428707 -3.526095 4.443008 -1.025974 -0.267423 3.396700 0.000000 0.000000 0.000000 10.708121 6.638023 -6.167795 -60.606995 -66.747633 -10.001316 174.561394 -56.474810 179.575081 23.433596 -12.865526 -2.977204 -0.251513 1.241901 -0.000000 0.000000 0.000000 0.000000 0.000000 0.000000 0.000000 -7.105848 -7.976496 -7.421188 11.581038 52.608862 -70.407856 -176.356030 62.080897 179.697390 -24.361930 20.102880 -4.692090 0.329568 -1.086519 0.000000 0.000000 0.000000 0.000000 0.000000 0.000000 0.000000 
4.753310 17.328856 1.002451 -2.155051 -73.469560 14.692126 -10.520889 2.968313 5.144972 -5.022883 2.006495 -16.993340 -2.359882 -1.422917 -1.432215 0.080884 0.735035 1.516436 0.391600 0.000000 -30.971100 9.438776 -2.295740 2.857064 8.707010 -7.826518 -8.524368 1.867988 2.578395 -5.235108 -3.141099 -18.274216 -3.414226 -3.099700 -0.000000 -23.460200 -3.182529 -3.530153 -9.125667 -0.492514 -3.483482 -5.309212 -2.782857 -3.549997 -4.379277 2.985732 -3.179640 4.529731 -0.855213 -0.260708 3.424817 0.000000 0.000000 0.000000 10.150258 6.190025 -6.100132 -60.627904 -67.692245 -10.034361 174.449271 -56.748003 179.572001 23.618718 -12.816018 -2.988024 -0.243183 1.234024 -0.000000 0.000000 0.000000 0.000000 0.000000 0.000000 0.000000 -8.012769 -7.242935 -7.412947 10.692893 52.554919 -71.641338 -176.435778 63.225505 179.690079 -25.180831 21.307557 -5.140769 0.336043 -1.102887 0.000000 0.000000 0.000000 0.000000 0.000000 0.000000 0.000000 
4.761058 17.331987 0.994495 -1.667904 -72.620758 14.404845 -10.455246 2.900631 5.161960 -5.052422 1.441071 -17.148309 -2.370718 -1.432307 -1.500027 0.053887 0.615710 1.796422 0.388300 0.000000 -31.012300 9.500087 -2.274977 2.733611 8.712045 -8.124199 -8.697949 1.826204 2.547680 -5.119611 -3.172426 -18.656474 -3.574063 -3.172100 -0.000000 -23.201000 -3.230387 -3.301950 -8.967427 -0.474472 -3.228817 -5.365728 -2.581446 -3.295081 -4.735935 2.485328 -2.837118 4.596436 -0.670277 -0.253071 3.447372 0.000000 0.000000 0.000000 9.523782 5.740677 -6.032840 -60.763269 -68.685161 -9.983928 174.334364 -57.028854 179.568499 23.818109 -12.830782 -3.014661 -0.234362 1.227329 -0.000000 0.000000 0.000000 0.000000 0.000000 0.000000 0.000000 -9.030250 -6.476087 -7.410736 10.057321 52.548893 -72.864097 -176.523666 64.650861 179.681135 -26.175837 22.594166 -5.668878 0.341922 -1.118475 0.000000 0.000000 0.000000 0.000000 0.000000 0.000000 0.000000 
